<svg width="67" height="66" viewBox="0 0 67 66" fill="none" xmlns="http://www.w3.org/2000/svg">
<path d="M25.3995 45.5594C25.1614 45.4953 24.915 45.3464 24.7164 45.1465C24.5141 44.943 24.4059 44.7778 24.3204 44.5421C24.2038 44.2211 24.2322 43.9336 24.3987 43.7493C24.6131 43.512 24.7744 43.5346 25.113 43.8497C25.3494 44.0697 25.4513 44.1477 25.601 44.2232C25.8673 44.3575 26.0535 44.2827 26.4912 43.8658C26.6071 43.7553 26.7344 43.6482 26.774 43.6277C26.914 43.5553 27.0347 43.5911 27.1753 43.7467C27.2992 43.8839 27.3406 44.0155 27.3271 44.2296C27.3064 44.5585 27.1724 44.8314 26.8924 45.1145C26.7502 45.2583 26.677 45.3111 26.5006 45.3969C26.1145 45.5847 25.7136 45.6439 25.3995 45.5594Z" fill="#2E0A8E"/>
<path d="M28.9112 41.5277C28.2252 41.3986 27.7264 40.8979 27.6083 40.2196C27.5701 40 27.6007 39.9138 27.7871 39.7161C27.8712 39.627 27.9854 39.5274 28.0409 39.4949C28.194 39.4052 28.2457 39.4305 28.5075 39.7228C28.8899 40.1497 29.0576 40.2599 29.3019 40.2444C29.4997 40.2318 29.6241 40.1465 30.0016 39.7646C30.3161 39.4464 30.3391 39.4336 30.4739 39.5025C30.8763 39.7084 30.9718 40.1642 30.7182 40.6685C30.4779 41.1463 30.0238 41.4557 29.4413 41.5384C29.2342 41.5678 29.1112 41.5653 28.9112 41.5277Z" fill="#2E0A8E"/>
<path d="M40.772 45.5783C40.0788 45.4606 39.3739 44.5625 39.5274 43.9926C39.5679 43.8421 39.781 43.6282 39.8963 43.6223C40.0956 43.6121 40.1709 43.6537 40.4952 43.9534C40.963 44.3856 41.2371 44.3845 41.7284 43.9484C42.0208 43.6889 42.1265 43.6263 42.2731 43.6262C42.3725 43.6261 42.4117 43.6482 42.5042 43.7562C42.7822 44.081 42.7465 44.5427 42.412 44.951C42.0687 45.3699 41.2928 45.6667 40.772 45.5783Z" fill="#2E0A8E"/>
<path d="M33.0469 45.5462C32.786 45.5011 32.5158 45.3413 32.2844 45.0953C32.0259 44.8204 31.8974 44.5617 31.8768 44.2746C31.8571 43.9989 31.9053 43.8557 32.067 43.7097C32.2753 43.5215 32.4192 43.5548 32.7453 43.8666C33.0376 44.1461 33.2161 44.2684 33.3695 44.2943C33.5884 44.3313 33.7154 44.2629 34.0745 43.9144C34.3294 43.667 34.4256 43.5934 34.4943 43.5934C34.7261 43.5934 34.9991 43.9228 35.0248 44.2335C35.0373 44.3836 35.0238 44.4416 34.9345 44.623C34.7996 44.8971 34.4999 45.2173 34.2581 45.3458C33.9249 45.5228 33.4068 45.6086 33.0469 45.5462Z" fill="#2E0A8E"/>
<path d="M37.1471 41.4928C36.5837 41.3374 36.1211 40.8334 36.0048 40.2484C35.973 40.0881 35.9735 40.0288 36.0074 39.947C36.0603 39.8192 36.4468 39.4538 36.5291 39.4538C36.565 39.4538 36.7197 39.5932 36.9021 39.79C37.276 40.1932 37.4273 40.2835 37.6919 40.2616C37.929 40.2419 38.0942 40.1223 38.3132 39.8119C38.6179 39.3799 38.7159 39.3532 38.9901 39.6273C39.2187 39.856 39.2709 40.0495 39.1896 40.367C39.0596 40.8744 38.6641 41.2721 38.0971 41.4654C37.8508 41.5494 37.3993 41.5624 37.1471 41.4928Z" fill="#2E0A8E"/>
<path d="M36.4414 49.7046C35.8379 49.5735 35.3572 49.059 35.2598 48.4399C35.206 48.098 35.3038 47.8644 35.5694 47.7003C35.7424 47.5934 35.8216 47.6306 36.1592 47.9775C36.5247 48.353 36.6246 48.4173 36.8428 48.4174C37.0542 48.4177 37.2375 48.3013 37.5182 47.9887C37.6294 47.8648 37.7682 47.7334 37.8267 47.6965L37.933 47.6295L38.0758 47.7132C38.4402 47.9268 38.5678 48.2676 38.4246 48.6446C38.2311 49.1538 37.7122 49.5888 37.1581 49.7062C36.8901 49.763 36.7083 49.7626 36.4414 49.7046Z" fill="#2E0A8E"/>
<path d="M29.5716 49.6757C28.907 49.4649 28.3928 48.688 28.5448 48.1243C28.5911 47.9525 28.8368 47.6858 28.9825 47.6493C29.114 47.6163 29.2062 47.6805 29.4738 47.9916C29.5993 48.1375 29.7544 48.2935 29.8184 48.3383C30.1154 48.546 30.3738 48.452 30.8085 47.9784C30.9636 47.8095 31.1193 47.6621 31.1546 47.6509C31.2807 47.6109 31.6786 47.9525 31.726 48.1415C31.7687 48.3113 31.7151 48.5711 31.5872 48.8145C31.3593 49.2482 30.98 49.5505 30.5102 49.6728C30.2845 49.7316 29.7531 49.7333 29.5716 49.6757Z" fill="#2E0A8E"/>
<path d="M33.2045 34.2712C32.3183 33.3273 31.2177 31.181 31.2177 30.3968C31.2177 29.7411 31.7734 28.9123 32.4659 28.5354C32.9522 28.2708 33.6892 28.23 34.2388 28.4373C34.7424 28.6272 35.2314 29.0375 35.4809 29.4797C35.6681 29.8114 35.6832 29.8848 35.6832 30.4618V31.0854L35.2454 31.9612C34.7848 32.8824 34.1986 33.8116 33.7675 34.3038L33.5105 34.5971L33.2045 34.2712Z" fill="#2E0A8E"/>
<path d="M23.9304 28.2045C23.6951 28.0397 23.5903 27.7615 23.5903 27.3015C23.5903 25.9596 24.7521 24.6821 26.1819 24.4518C27.7859 24.1934 29.4047 25.3525 29.7214 26.9861C29.8216 27.5027 29.7242 27.9089 29.4435 28.145C29.0517 28.4747 28.5673 28.2402 28.4174 27.6483C28.211 26.8332 27.8788 26.3512 27.3455 26.093C26.7532 25.8063 25.8835 25.9906 25.4388 26.4971C25.3266 26.6249 25.1688 26.9302 25.0881 27.1756C24.8745 27.825 24.7219 28.0952 24.5056 28.2071C24.2621 28.333 24.113 28.3324 23.9304 28.2045Z" fill="#2E0A8E"/>
<path d="M37.4531 28.1104C36.8876 27.4383 37.4279 25.6784 38.4056 25.0077C39.6486 24.1551 41.3304 24.2473 42.3261 25.2228C42.929 25.8134 43.4085 26.7567 43.4082 27.3516C43.408 27.786 42.9619 28.3063 42.5896 28.3063C42.3616 28.3063 42.1289 27.9691 41.9481 27.3768C41.8578 27.0813 41.6938 26.7169 41.5836 26.5672C41.0721 25.8724 39.9499 25.7531 39.213 26.3151C38.9443 26.5201 38.6693 27.014 38.6105 27.3973C38.5493 27.7964 38.4194 28.0287 38.1736 28.1785C37.8704 28.3634 37.6483 28.3424 37.4531 28.1104Z" fill="#2E0A8E"/>
<path d="M46.4624 50.1799C45.9707 49.6204 44.6552 46.0491 44.1375 43.8681C43.5803 41.5208 43.5823 39.0411 44.1434 36.4393C44.2672 35.8655 44.3478 35.3626 44.3226 35.3218C44.2973 35.281 43.9049 35.3441 43.4505 35.4622C42.7929 35.6329 42.3299 35.6823 41.1829 35.7039L39.7416 35.731L39.4719 35.4299C39.1715 35.0944 39.116 34.6728 39.347 34.481C39.4343 34.4086 39.9194 34.3324 40.5686 34.289C42.0291 34.1916 42.8739 33.9935 43.8581 33.518C45.2229 32.8585 46.2084 31.9291 47.0377 30.5194C47.7255 29.3503 47.9977 28.1765 47.9885 26.4194C47.9833 25.4043 47.9452 25.0966 47.7399 24.4089C47.0016 21.9362 45.1974 19.9901 42.7868 19.0665L42.0142 18.7704L40.2625 18.7724C38.571 18.7744 38.4887 18.7831 37.8655 19.0283C36.4259 19.5948 34.9684 20.7508 33.9251 22.1537L33.4636 22.7742L33.1841 22.3841C32.0271 20.7698 30.5403 19.5912 28.9513 19.0286C28.3695 18.8226 28.0819 18.7841 26.8484 18.7467C25.7481 18.7134 25.2766 18.7369 24.7989 18.8489C22.5134 19.3847 20.4529 21.2654 19.4842 23.6997C19.1176 24.6209 18.8774 26.2529 18.9633 27.2382C19.2371 30.3766 21.1604 32.9555 23.9175 33.881C24.3866 34.0385 25.0435 34.1544 25.9554 34.2405C27.4622 34.3828 27.7703 34.5004 27.7703 34.9334C27.7703 35.2996 27.4335 35.5736 26.8436 35.6874C26.0963 35.8316 24.3775 35.706 23.448 35.4394C23.023 35.3174 22.6534 35.2395 22.6267 35.2661C22.6 35.2928 22.6882 35.8439 22.8228 36.4908C23.5263 39.8735 23.3628 42.4696 22.2245 45.989C21.4292 48.4477 20.6386 50.2514 20.3561 50.2514C20.1325 50.2514 18.4921 48.4426 17.8748 47.5154C16.8156 45.9244 15.9316 43.8263 15.6727 42.2888C15.5065 41.3019 15.5374 38.6654 15.7265 37.6909C16.0627 35.959 16.9261 33.9362 17.9203 32.551C18.4198 31.8551 18.4717 31.7423 18.3867 31.5368C18.3342 31.4097 18.1422 30.97 17.9601 30.5597C17.3388 29.16 17.2249 28.562 17.2245 26.696C17.2242 25.1897 17.2467 24.9533 17.468 24.1351C17.7714 23.0136 18.3679 21.7415 19.0863 20.6841C19.8423 19.5713 19.8428 19.5679 19.2973 19.1519C18.2013 18.3161 17.2788 16.5253 17.1136 14.9129C17.0587 14.3769 17.0723 14.3144 17.3038 14.0392C17.6915 13.5785 17.6449 13.5613 19.1918 14.735C19.6103 15.0525 20.2609 15.4605 20.6375 15.6416C21.4339 16.0247 22.7496 16.3213 23.66 16.323C24.242 16.3241 24.3948 16.2791 25.4117 15.8065C30.0233 13.6636 35.042 13.3383 39.3871 14.9009C39.7672 15.0376 40.6382 15.4034 41.3227 15.7138L42.5674 16.2781L43.4893 16.2684C45.1492 16.251 46.7491 15.6535 48.1373 14.5327C49.1241 13.736 49.2513 13.6781 49.5637 13.8828C49.6974 13.9704 49.8323 14.1441 49.8637 14.2689C50.022 14.8998 49.641 16.4315 49.0496 17.5418C48.7189 18.1625 47.9391 19.064 47.5547 19.2697C47.1944 19.4625 47.2534 19.7134 47.8838 20.6703C49.4243 23.0088 49.8706 24.542 49.7778 27.1774C49.7191 28.8458 49.6085 29.3417 49.0138 30.6035C48.7895 31.0793 48.606 31.5529 48.606 31.6559C48.606 31.7588 48.8726 32.2408 49.1984 32.7268C49.8652 33.7215 50.3104 34.648 50.7732 36.0044C51.3304 37.6372 51.4024 38.1142 51.4068 40.2024C51.4105 41.8921 51.3885 42.1753 51.1993 42.876C50.7587 44.5073 49.8468 46.5047 48.9829 47.7307C48.4227 48.5256 47.2275 49.8935 46.8721 50.1466C46.6174 50.328 46.5941 50.3299 46.4624 50.1799ZM18.6972 41.9642C18.8537 41.8688 19.0668 41.6097 19.1708 41.3883C19.5769 40.5244 20.8574 35.6626 20.8538 34.9983C20.8502 34.3366 20.2977 33.4722 19.8784 33.4722C19.6266 33.4722 19.0934 34.1482 18.6952 34.9723C17.9249 36.5664 17.341 38.9211 17.3181 40.525C17.3079 41.2416 17.3351 41.401 17.5173 41.694C17.8239 42.1872 18.1929 42.2717 18.6972 41.9642ZM49.1702 41.979C49.3518 41.8717 49.4731 41.6984 49.5413 41.4489C49.6677 40.9859 49.5761 39.14 49.3788 38.1745C48.947 36.0613 47.6209 33.4722 46.9704 33.4722C46.7074 33.4722 46.238 34.0371 46.1096 34.5082C45.9772 34.9939 46.0582 35.4526 46.6835 37.7592C47.4337 40.5261 47.7597 41.4624 48.098 41.8211C48.4388 42.1824 48.7485 42.228 49.1702 41.979Z" fill="#2E0A8E"/>
<path d="M27.5422 65.3566C27.3087 65.1729 27.2922 65.1171 27.3274 64.6301C27.3748 63.9754 27.7682 63.2851 28.5377 62.5066C29.0308 62.0077 29.6377 61.6428 30.6513 61.236C30.8059 61.1739 30.9049 61.0644 30.9049 60.9552C30.9049 60.7448 30.9071 60.7454 28.9968 60.4863C28.2263 60.3818 26.8779 60.1507 26.0005 59.9729C25.1231 59.795 24.3198 59.6703 24.2154 59.6958C24.0967 59.7247 23.9446 59.9212 23.8095 60.2202C23.4743 60.9619 22.4373 61.9941 21.644 62.3756C20.6377 62.8597 19.9509 63.0041 18.8964 62.9533C18.2013 62.9198 17.9554 62.8722 17.8131 62.7434C17.4168 62.3847 17.6713 61.5636 18.4303 60.7522C18.9764 60.1684 19.5401 59.8205 20.4409 59.5114C21.2321 59.2399 21.504 59.0663 21.3589 58.9255C21.3103 58.8784 20.6276 58.5129 19.8416 58.1134C19.0557 57.7139 17.9688 57.1298 17.4264 56.8155C16.884 56.5012 16.3965 56.244 16.3431 56.244C16.2898 56.244 16.0842 56.4059 15.8863 56.6038C15.4617 57.0284 14.5641 57.4745 13.837 57.6222C13.3022 57.7308 12.2369 57.6482 11.5442 57.4444C10.7346 57.2061 10.0691 56.5911 10.0691 56.0813C10.0691 55.5039 11.1618 54.868 12.4912 54.6715C12.8577 54.6174 13.2924 54.553 13.4572 54.5285C13.6606 54.4983 13.7569 54.4335 13.757 54.3268C13.7572 54.0854 12.0527 52.4639 11.8001 52.4651C11.6847 52.4656 11.3829 52.5308 11.1293 52.6099C10.5434 52.7928 9.25165 52.8168 8.59402 52.6571C7.79616 52.4633 7.07518 52.0323 6.47441 51.3901C5.7099 50.5728 5.5409 49.8178 6.04365 49.4657C6.30702 49.2812 7.52914 49.2893 8.36354 49.481C9.37071 49.7124 9.70035 49.7391 9.70035 49.589C9.70035 49.5182 9.49 49.1301 9.23292 48.7265C8.97583 48.3229 8.66398 47.7956 8.53991 47.5548L8.31434 47.1169L7.69359 47.1155C6.58054 47.1131 5.45456 46.7366 4.40946 46.0176C3.34547 45.2855 2.31878 43.6436 2.25004 42.5641C2.20293 41.8243 2.30589 41.7294 3.14003 41.7432C3.87346 41.7553 4.50409 41.9747 5.46175 42.5506C5.84078 42.7786 6.20746 42.9658 6.2766 42.9666C6.45664 42.9688 6.39348 42.7258 5.67509 40.6517L5.04838 38.8424L4.20369 38.7982C3.10019 38.7405 2.34932 38.408 1.62888 37.6582C0.877955 36.8767 0.632063 36.3017 0.588869 35.2263C0.557688 34.45 0.575396 34.3197 0.739652 34.1169C0.889103 33.9324 1.00454 33.8888 1.32569 33.8959C1.84203 33.9072 2.31843 34.1565 3.14726 34.849C3.51544 35.1566 3.87515 35.4083 3.94661 35.4083C4.10886 35.4083 4.11139 35.1783 3.97111 33.1771L3.86317 31.6374L3.41471 31.5412C2.39511 31.3226 1.32937 30.5276 0.899538 29.665C0.69964 29.2639 0.665383 29.0706 0.665383 28.3441C0.665383 27.5345 0.677217 27.4837 0.908301 27.302C1.44231 26.8819 2.071 27.1177 3.10303 28.125C3.51862 28.5307 3.90446 28.8626 3.96044 28.8626C4.07046 28.8626 4.17632 28.5756 4.38557 27.7101C4.6407 26.6549 4.65526 26.4655 4.48125 26.4655C4.19962 26.4655 3.01102 25.1387 2.6548 24.4266L2.32487 23.7671V22.4632C2.32487 21.4626 2.35653 21.1141 2.46101 20.965C2.91666 20.3144 4.10793 20.9253 5.01361 22.2738C5.23346 22.6012 5.45867 22.8693 5.51405 22.8695C5.56944 22.8697 5.7716 22.5277 5.9633 22.1094C6.155 21.691 6.53493 20.877 6.80758 20.3003C7.08024 19.7236 7.30303 19.205 7.30267 19.1478C7.30236 19.0907 7.09883 18.7457 6.85047 18.3813C6.04997 17.2065 5.72717 15.9344 5.90048 14.6375C6.00736 13.8376 6.1475 13.5074 6.48654 13.2566C6.69778 13.1003 6.773 13.0907 7.05498 13.1838C7.72778 13.4058 8.68863 14.5332 9.01554 15.4841C9.19575 16.0083 9.30199 15.967 10.0054 15.0991C10.5361 14.4442 10.546 14.2662 10.1033 13.334C9.77167 12.6357 9.7691 12.621 9.81468 11.688C9.8853 10.2427 10.3887 9.16881 11.2123 8.70686C11.6389 8.46755 11.8305 8.50775 12.1844 8.91085C12.5536 9.33131 12.6494 9.74241 12.65 10.9079C12.6504 11.677 12.6783 11.8989 12.7747 11.8989C12.843 11.8989 13.3804 11.4877 13.9689 10.985C14.5574 10.4824 15.188 9.95733 15.3703 9.81829C15.8767 9.43206 15.8955 9.34413 15.6419 8.54566C15.1473 6.98823 15.5014 5.0688 16.4453 4.19108C16.8462 3.81829 16.9897 3.77579 17.3144 3.93382C17.8667 4.20262 18.3821 5.34087 18.547 6.65635C18.5995 7.0751 18.6858 7.46101 18.7387 7.51392C18.8375 7.61274 19.7372 7.19747 20.2024 6.83833C20.4156 6.6737 20.4205 6.6453 20.3217 6.15299C20.2007 5.55067 20.2923 4.8278 20.5689 4.20257C20.9704 3.29498 22.3527 2.21863 23.1168 2.21863C23.5007 2.21863 23.8566 2.50491 23.9954 2.92529C24.1284 3.32846 24.0527 4.22763 23.8532 4.61339C23.7765 4.76172 23.7138 4.96812 23.7138 5.07205C23.7138 5.32089 23.8896 5.31129 25.0905 4.99685L26.0523 4.745L26.2151 3.98834C26.4236 3.01919 26.9105 2.09567 27.5438 1.46843C28.3292 0.690441 29.4267 0.218594 29.8829 0.462746C30.407 0.743277 30.4817 1.69399 30.047 2.55188C29.7596 3.11898 28.9669 3.87513 28.3158 4.20324C27.6502 4.53868 27.3093 4.78627 27.3093 4.93438C27.3093 5.00135 27.6211 5.20423 28.0022 5.3852C29.5196 6.10582 30.4955 7.58567 30.0375 8.47145C29.7754 8.97814 29.0013 8.98722 28.0021 8.49533C27.2737 8.13675 26.7671 7.58108 26.3314 6.66299L26.0074 5.98015L25.6879 6.04009C25.1708 6.13709 23.1036 6.85673 22.0082 7.32109C20.7643 7.84838 20.0022 8.27771 20.0506 8.42389C20.0706 8.48439 20.2703 8.56787 20.4944 8.6094C22.0263 8.89333 22.8691 9.22748 23.452 9.78205C23.9198 10.227 23.9217 10.5148 23.4602 10.9737C23.0451 11.3865 22.2854 11.6878 21.2959 11.832C19.9062 12.0346 18.6102 11.6804 17.2876 10.7366C16.8622 10.4331 16.6393 10.3292 16.4941 10.3671C15.9523 10.5082 12.0891 14.2233 11.0541 15.5984C10.2849 16.6203 10.3515 16.7947 11.3504 16.3743C12.8379 15.7482 14.2178 15.9841 14.2178 16.8644C14.2178 17.6135 13.0882 18.9097 11.9443 19.4732C11.3317 19.7749 11.2871 19.7825 9.84564 19.8276L8.37291 19.8737L7.97772 20.6112C7.50694 21.4899 6.77781 23.192 6.7347 23.5131C6.6882 23.8593 6.94317 23.8487 7.50396 23.4809C8.10225 23.0886 8.95273 22.8303 9.38145 22.9107C10.3908 23.1 10.2493 24.5995 9.11517 25.7336C8.39568 26.4531 7.78944 26.6908 6.18053 26.884L5.7492 26.9358L5.55823 27.7493C5.45319 28.1966 5.36725 28.6094 5.36725 28.6665C5.36725 28.8485 5.66054 28.7789 6.1107 28.49C6.64915 28.1445 7.47022 27.8484 7.89006 27.8484C8.06318 27.8484 8.30276 27.9278 8.42247 28.0248C8.6039 28.1719 8.63907 28.2831 8.63382 28.6932C8.62583 29.3156 8.35897 29.9201 7.84695 30.4756C7.34025 31.0253 6.81605 31.3287 5.93519 31.5822C5.24711 31.7802 5.22814 31.7935 5.19714 32.0987C5.14481 32.6138 5.28615 35.0011 5.37724 35.1406C5.44278 35.2411 5.59023 35.1331 6.03676 34.6577C6.67081 33.9826 7.06663 33.6852 7.4943 33.5625C8.16718 33.3695 8.54611 33.8975 8.48554 34.9436C8.42242 36.0338 7.74003 37.1493 6.64403 37.9538C6.38014 38.1476 6.19699 38.3541 6.19699 38.458C6.19699 38.94 7.38794 42.181 8.1873 43.8744C8.79441 45.1605 8.90276 45.1871 9.19009 44.1206C9.54996 42.7848 10.1885 41.841 11.0368 41.391C11.5429 41.1225 11.683 41.1827 11.994 41.8022C12.1572 42.1275 12.2244 42.444 12.257 43.0415C12.3388 44.5423 11.8889 45.7647 10.8119 46.9679C10.4209 47.4047 10.1613 47.7762 10.1613 47.8988C10.1613 48.2565 12.132 51.0044 12.9718 51.8177C13.4081 52.2401 13.4769 52.1277 13.4792 50.989C13.4806 50.2827 13.516 50.0556 13.6622 49.816C14.0501 49.1798 14.7039 49.3371 15.6672 50.2985C16.8072 51.4361 17.3138 52.8451 17.0932 54.264C17.0348 54.6397 17.0109 55.0092 17.04 55.0851C17.1007 55.2434 18.24 55.9918 19.2476 56.5352C20.0927 56.9911 20.154 56.916 19.7141 55.9632C18.8279 54.0433 19.1854 53.0615 20.6029 53.5224C22.1841 54.0365 23.5988 55.5941 24.0344 57.3006C24.1116 57.6028 24.1747 57.963 24.1747 58.101C24.1747 58.3883 24.1078 58.3604 25.5576 58.6773C27.4522 59.0915 30.7552 59.5969 30.9279 59.4991C31.0614 59.4235 30.9954 59.0957 30.8357 59.0411C29.5611 58.6056 28.4082 57.6932 27.9603 56.7657C27.5466 55.9089 27.5176 55.5999 27.8223 55.2952C27.9596 55.1579 28.1597 55.0392 28.2669 55.0316C29.3121 54.957 30.818 55.6371 31.5824 56.5288C32.1988 57.2478 32.5223 57.9273 32.84 59.1703C32.9511 59.6049 33.1099 59.6891 33.7235 59.6385L34.0813 59.6091L34.2923 58.7793C34.7246 57.0787 35.3707 56.2299 36.7566 55.5419C37.4249 55.2102 37.7415 55.1079 38.2188 55.0696C39.2088 54.9901 39.5321 55.3628 39.2592 56.2693C38.9516 57.2915 38.2465 58.0074 36.8323 58.7332C36.3107 59.001 36.012 59.2104 35.9902 59.3238C35.9584 59.4896 36.0025 59.496 36.7727 59.4372C38.3144 59.3197 42.0053 58.7054 42.6559 58.458C42.8319 58.3911 42.8704 58.2887 42.9202 57.7551C43.0259 56.6237 43.9243 55.106 44.9535 54.3201C45.9324 53.5725 46.9767 53.223 47.4593 53.4813C48.078 53.8124 47.902 55.0392 47.0415 56.3931C46.92 56.5843 46.9603 56.8894 47.1071 56.8894C47.2043 56.8894 49.0997 55.8348 49.574 55.5168L49.9428 55.2696L49.9889 53.8438C50.0343 52.4396 50.04 52.4075 50.3663 51.7244C50.9192 50.5665 52.16 49.4217 52.8618 49.4217C52.9748 49.4217 53.1837 49.5332 53.3259 49.6694C53.5818 49.9146 53.5845 49.9289 53.5845 51.0523C53.5845 51.6767 53.6092 52.1875 53.6394 52.1875C53.808 52.1875 54.2929 51.7189 54.9031 50.9661C55.6937 49.9909 56.9956 48.0939 56.9956 47.9172C56.9956 47.852 56.6874 47.4398 56.3107 47.0013C55.0984 45.5901 54.8712 45.0082 54.8823 43.3432C54.8904 42.1162 55.0054 41.6339 55.3514 41.3755L55.5968 41.1923L56.0194 41.3969C56.8101 41.7797 57.5768 42.9343 57.916 44.2529C58.0117 44.6248 58.13 44.9691 58.1789 45.018C58.2988 45.138 58.6171 44.5768 59.2372 43.1523C60.2431 40.8411 61.0123 38.6023 60.9005 38.3109C60.8724 38.2377 60.7159 38.0953 60.5526 37.9944C60.0531 37.6857 59.2136 36.733 58.9676 36.1956C58.8394 35.9156 58.6902 35.4191 58.6361 35.0924C58.545 34.5426 58.5541 34.4654 58.7577 34.0585C59.0619 33.4507 59.3287 33.3742 59.9996 33.7024C60.3478 33.8728 60.6546 34.1283 60.979 34.5181C61.2388 34.8302 61.4958 35.0856 61.5501 35.0856C61.7838 35.0856 61.8993 34.5297 61.9491 33.1644L62.0003 31.7629L61.4175 31.6425C59.7958 31.3075 58.6056 30.118 58.4893 28.7159C58.4537 28.2875 58.4733 28.2285 58.7141 28.0385C59.1063 27.7289 59.7116 27.8088 60.7644 28.3091C61.328 28.577 61.6403 28.68 61.7018 28.6186C61.7633 28.5571 61.7464 28.2982 61.6512 27.8417C61.4287 26.7751 61.4714 26.8343 60.9246 26.8343C60.2235 26.8343 59.4174 26.6656 58.9239 26.4155C57.4458 25.6665 56.5238 23.4906 57.476 22.9982C57.9087 22.7745 58.4733 22.881 59.4343 23.3676C59.8951 23.601 60.308 23.7919 60.3516 23.7919C60.6068 23.7919 59.8293 21.6766 59.0809 20.3347C58.7927 19.8178 58.7519 19.7826 58.4602 19.7991C56.8814 19.8879 56.1005 19.8502 55.5812 19.6601C54.3733 19.2179 53.2449 18.1189 52.9344 17.0823C52.7865 16.5889 52.9513 16.3131 53.5244 16.0942C53.874 15.9607 54.0278 15.9528 54.5887 16.0399C54.9493 16.0958 55.5189 16.2449 55.8544 16.3712C56.1899 16.4975 56.4802 16.6008 56.4995 16.6008C56.5188 16.6008 56.5343 16.5075 56.5338 16.3934C56.5323 16.0434 55.6488 14.9674 54.0505 13.3688C52.3562 11.6743 50.7918 10.3317 50.5117 10.3317C50.411 10.3317 50.1174 10.4945 49.8591 10.6936C48.7999 11.5103 47.3536 11.9655 46.1251 11.869C44.6521 11.7534 43.2588 11.041 43.2588 10.4036C43.2588 10.1324 43.8849 9.52593 44.4631 9.23699C44.937 9.00019 45.5543 8.82646 46.7551 8.59195C47.4485 8.45652 47.1044 8.17691 45.2816 7.39494C43.9548 6.82574 41.3986 5.97423 41.1378 6.01456C40.9989 6.03603 40.8832 6.19249 40.7343 6.56013C40.6194 6.84364 40.387 7.26847 40.2177 7.5042C39.4756 8.53754 37.7868 9.18727 37.1612 8.68014C36.9761 8.5301 36.9443 8.42326 36.9486 7.96564C36.9517 7.63677 37.0219 7.28418 37.1291 7.05879C37.4019 6.48552 38.1616 5.80331 38.9617 5.41315C39.9038 4.95378 39.8934 4.81406 38.8796 4.30562C37.45 3.58869 36.6979 2.56636 36.6798 1.31557C36.6735 0.878028 36.7048 0.787167 36.9284 0.594834C37.0887 0.456966 37.3004 0.374756 37.4951 0.374756C37.9422 0.374756 38.9807 0.946891 39.5528 1.5084C40.1104 2.05568 40.6981 3.13568 40.8584 3.90801C40.9154 4.18247 41.0138 4.47786 41.0771 4.56443C41.1887 4.717 42.8297 5.26101 43.1783 5.26101C43.392 5.26101 43.3974 5.0821 43.2034 4.42868C43.1075 4.10595 43.0684 3.70821 43.0918 3.29451C43.1238 2.72817 43.1574 2.63186 43.3945 2.42791C43.6128 2.24014 43.7313 2.20634 44.0467 2.24189C44.9144 2.3397 46.0526 3.22805 46.5252 4.17633C46.7367 4.60088 46.7621 4.76122 46.7621 5.67192V6.69197L47.4912 7.12891C47.8923 7.36923 48.2628 7.56585 48.3148 7.56585C48.4331 7.56585 48.4828 7.388 48.5594 6.69001C48.652 5.84605 48.7881 5.35847 49.0946 4.77237C49.3945 4.19875 49.7511 3.87811 50.0892 3.87811C50.4163 3.87811 51.1294 4.68066 51.3689 5.31843C51.7918 6.44415 51.8179 7.30427 51.4701 8.65115L51.297 9.32158L51.8645 9.82139C53.0733 10.886 54.2757 11.8989 54.3306 11.8989C54.3621 11.8989 54.4168 11.4322 54.452 10.8618C54.4873 10.2913 54.5626 9.66702 54.6194 9.47444C54.7364 9.07741 55.2461 8.57998 55.5359 8.57998C55.8811 8.57998 56.3652 8.96567 56.7317 9.53272C57.2182 10.2854 57.3648 10.8342 57.3622 11.8926C57.3604 12.6309 57.3215 12.865 57.1237 13.3279C56.9938 13.6322 56.8432 13.988 56.789 14.1188C56.7025 14.3277 56.7381 14.4264 57.0843 14.9362C57.7838 15.9662 58.0057 16.0842 58.1777 15.5175C58.3719 14.8781 59.1645 13.7665 59.643 13.4625C60.3172 13.0343 60.4849 13.0187 60.7867 13.3565C60.9277 13.5143 61.09 13.8177 61.1474 14.0308C61.3061 14.6203 61.2765 16.4711 61.1003 16.9667C60.9393 17.4196 60.2135 18.6296 59.9929 18.8126C59.7598 19.0061 59.8282 19.2599 60.4894 20.6538C60.8391 21.391 61.218 22.1932 61.3314 22.4365C61.588 22.9871 61.7364 22.9727 62.0907 22.3629C62.8101 21.1247 64.0993 20.3721 64.5781 20.9109C64.9321 21.309 65.0316 22.5975 64.7832 23.5651C64.4987 24.6729 63.9406 25.4815 62.8595 26.3521C62.5667 26.5879 62.5662 26.5714 62.9108 28.0623C63.1172 28.9549 63.2871 29.1462 63.5339 28.7635C63.8722 28.2387 64.615 27.5565 65.1262 27.3011C65.7171 27.0058 65.8507 27.0143 66.238 27.3721C66.4673 27.5839 66.4915 27.667 66.4915 28.2397C66.4915 29.1038 66.3544 29.5802 65.9517 30.115C65.5051 30.7082 64.7574 31.2108 63.9562 31.4565C63.6013 31.5654 63.299 31.6639 63.2845 31.6754C63.27 31.687 63.2181 32.4175 63.1691 33.2988C63.1201 34.1801 63.056 35.0153 63.0267 35.1548C62.9293 35.6191 63.2082 35.5578 63.8989 34.9633C64.9824 34.0308 65.6302 33.7292 66.1167 33.9307C66.5025 34.0905 66.6187 34.4535 66.5596 35.3152C66.4979 36.215 66.212 36.8818 65.6131 37.522C64.824 38.3656 64.0844 38.7036 62.6315 38.8846L62.0443 38.9577L61.5167 40.4789C61.2265 41.3156 60.9203 42.1608 60.8362 42.3571C60.6563 42.7773 60.6392 43.0604 60.7938 43.0604C60.8546 43.0604 61.1839 42.8728 61.5256 42.6435C62.655 41.8858 63.9801 41.5182 64.5395 41.8075C64.8981 41.9929 64.9893 42.3128 64.8424 42.8705C64.2379 45.1661 61.7718 47.1161 59.4715 47.1171L58.8856 47.1175L58.125 48.3005C57.3885 49.4462 57.2387 49.7918 57.4796 49.7893C57.543 49.7887 57.8645 49.7024 58.1941 49.5975C58.8221 49.3978 60.3888 49.2588 60.8128 49.3652C61.149 49.4496 61.4209 49.7444 61.4209 50.0247C61.4209 50.9262 59.8184 52.3037 58.3137 52.6956C57.6194 52.8764 57.0892 52.8617 56.3042 52.6399C55.9492 52.5396 55.5714 52.4346 55.4646 52.4065C55.3147 52.3671 55.0359 52.5593 54.243 53.2486C53.6242 53.7865 53.2157 54.2097 53.2157 54.3128C53.2157 54.4973 53.3372 54.53 54.3992 54.6318C55.6475 54.7514 56.7147 55.2528 56.9574 55.8339C57.1266 56.2387 57.026 56.4936 56.5291 56.9189C55.9093 57.4494 55.3977 57.5809 53.9532 57.5809C52.7856 57.5809 52.6801 57.5658 52.2472 57.3373C51.9935 57.2033 51.5537 56.9025 51.2699 56.6688C50.9861 56.4352 50.7166 56.2443 50.671 56.2446C50.6255 56.2449 50.1111 56.5184 49.5279 56.8525C48.9448 57.1867 47.8338 57.7947 47.059 58.2037C46.2842 58.6127 45.665 58.9925 45.6829 59.0477C45.7008 59.103 46.0239 59.2524 46.4008 59.3798C47.7376 59.8317 48.7384 60.6209 49.2668 61.6402L49.5711 62.2271L49.3795 62.4854C49.1285 62.8239 48.7059 62.963 47.9146 62.9674C47.0923 62.972 46.1214 62.7666 45.4787 62.4522C44.8442 62.1417 43.7464 61.0672 43.3588 60.3772C43.1974 60.0898 43.0066 59.8059 42.935 59.7465C42.8337 59.6625 42.5006 59.7019 41.4414 59.9234C40.0589 60.2125 38.1358 60.5128 36.922 60.629C35.8817 60.7286 35.6449 61.0684 36.4499 61.3061C37.6631 61.6644 38.8274 62.6088 39.3426 63.6523C39.7526 64.4826 39.8312 64.9192 39.6268 65.2311C39.4855 65.4468 39.4228 65.4634 38.7485 65.4634C38.069 65.4634 37.9673 65.4359 37.1603 65.0335C36.5226 64.7155 36.151 64.4541 35.7329 64.0297C35.0988 63.386 34.4971 62.2983 34.3082 61.454L34.1929 60.9387L33.5009 60.9654L32.8089 60.992L32.6898 61.5176C32.284 63.3084 30.6933 64.9523 28.9189 65.4144C28.1823 65.6063 27.8414 65.5919 27.5422 65.3566Z" fill="#2E0A8E"/>
<path d="M11.3798 33.4205C10.7019 32.9457 10.7622 31.8454 11.4849 31.5025C12.1044 31.2085 12.5524 31.3447 12.9195 31.9388C13.2207 32.4261 13.1735 32.7865 12.7535 33.2065C12.4463 33.5137 12.3382 33.5644 11.9904 33.5644C11.7675 33.5644 11.4928 33.4997 11.3798 33.4205Z" fill="#2E0A8E"/>
<path d="M12.6592 26.3204C12.5041 26.1899 12.3297 25.9243 12.2715 25.7302C12.1816 25.43 12.1917 25.3241 12.339 25.0225C12.8073 24.0634 14.1063 24.1919 14.3917 25.2255C14.4747 25.5262 14.4597 25.6263 14.2849 25.9373C13.9204 26.5858 13.1816 26.7599 12.6592 26.3204Z" fill="#2E0A8E"/>
<path d="M54.5767 33.4202C54.2578 33.2471 54.0454 32.8416 54.0454 32.4058C54.0454 31.9375 54.6161 31.3517 55.0717 31.3522C55.7431 31.3529 56.3273 31.9959 56.2256 32.6221C56.1053 33.3636 55.2423 33.7813 54.5767 33.4202Z" fill="#2E0A8E"/>
<path d="M53.2446 26.3779C52.8772 26.1539 52.7546 25.9291 52.755 25.4805C52.7562 24.2668 54.3055 23.9464 54.8299 25.0515C54.9755 25.3583 54.9754 25.4037 54.8273 25.7915C54.5584 26.4956 53.8612 26.7539 53.2446 26.3779Z" fill="#2E0A8E"/>
<path d="M32.9212 5.76732C32.621 5.60418 32.3494 4.96484 32.4281 4.60653C32.4936 4.30791 33.0125 3.81581 33.3515 3.73073C33.7907 3.62048 34.3814 4.01133 34.5841 4.5464C34.9041 5.39105 33.7663 6.22648 32.9212 5.76732Z" fill="#2E0A8E"/>
</svg>
